<svg version="1.0" xmlns="http://www.w3.org/2000/svg" width="36" height="32"
    viewBox="0 0 900.000000 900.000000" preserveAspectRatio="xMidYMid meet">
    <g transform="translate(0.000000,900.000000) scale(0.100000,-0.100000)" fill="#000000"
        stroke="none">
        <path
            d="M2270 7610 c-36 -5 -95 -20 -131 -34 -36 -13 -95 -32 -130 -41 -35 -9 -89 -32 -119 -50 -30 -18 -69 -41 -87 -51 -144 -86 -334 -310 -378 -445 -9 -30 -28 -74 -42 -97 -14 -24 -33 -85 -44 -135 -18 -87 -19 -156 -19 -1318 0 -778 3 -1236 9 -1253 17 -42 54 -44 95 -5 65 64 115 100 177 130 34 17 76 41 93 54 17 12 42 26 56 30 14 4 59 24 100 45 175 87 475 113 720 61 110 -23 126 -28 160 -52 14 -9 54 -29 90 -43 35 -15 78 -39 95 -55 16 -16 46 -37 65 -46 41 -21 117 -83 169 -138 144 -154 2507 -2507 2546 -2537 28 -20 56 -44 62 -52 7 -8 32 -23 55 -33 24 -10 68 -33 98 -51 30 -18 84 -40 120 -49 36 -9 100 -27 143 -40 154 -49 377 -44 536 10 36 12 97 28 134 35 37 7 84 23 103 37 20 13 61 37 92 53 88 44 253 194 286 258 10 19 32 53 50 76 17 23 40 64 51 91 10 28 29 67 42 88 35 56 52 150 63 347 5 98 9 1077 9 2215 -1 1992 -1 2042 -21 2145 -13 71 -31 126 -53 170 -19 36 -46 90 -60 120 -38 82 -127 203 -200 270 -67 63 -131 113 -168 131 -23 12 -55 32 -70 45 -16 13 -54 31 -85 40 -31 9 -88 30 -127 47 -66 29 -79 31 -220 35 -187 5 -336 -10 -413 -42 -31 -13 -83 -29 -114 -36 -31 -7 -74 -23 -95 -36 -21 -13 -60 -35 -88 -50 -27 -15 -69 -43 -94 -63 -51 -42 -160 -153 -161 -163 0 -4 -18 -27 -39 -52 -22 -25 -43 -56 -46 -68 -4 -13 -23 -48 -42 -79 -20 -33 -45 -99 -63 -164 -16 -60 -38 -128 -47 -150 -16 -37 -18 -97 -23 -706 -5 -638 -6 -668 -24 -688 -11 -12 -25 -21 -33 -21 -14 0 -1761 1745 -1848 1846 -27 31 -60 67 -73 78 -12 12 -43 40 -68 64 -25 23 -62 51 -83 61 -20 11 -57 36 -80 55 -24 20 -48 36 -55 36 -7 0 -42 18 -78 40 -36 21 -101 49 -144 60 -44 12 -110 33 -149 47 -59 21 -90 26 -205 28 -74 2 -164 0 -200 -5z" />
        <path
            d="M2280 3674 c-112 -13 -172 -29 -230 -58 -36 -18 -83 -39 -105 -46 -22 -7 -53 -24 -69 -37 -16 -13 -50 -35 -76 -48 -60 -30 -231 -196 -292 -283 -26 -37 -59 -92 -74 -122 -14 -30 -41 -86 -60 -125 -27 -56 -39 -103 -60 -237 l-28 -167 17 -138 c25 -201 43 -275 88 -359 21 -41 39 -81 39 -89 0 -7 15 -33 33 -57 18 -24 40 -55 50 -71 58 -90 225 -247 312 -293 28 -14 60 -35 72 -47 13 -11 65 -35 115 -53 51 -18 120 -43 153 -56 57 -22 73 -23 295 -23 l235 0 90 37 c50 20 110 41 135 48 25 6 61 24 80 39 20 16 56 39 80 51 115 59 331 282 381 394 10 22 29 56 43 74 13 18 34 70 46 115 11 45 33 116 48 157 26 71 27 84 26 245 -1 168 -1 171 -37 277 -20 59 -39 122 -42 142 -4 19 -29 72 -56 118 -27 45 -49 88 -49 94 0 6 -10 19 -21 30 -12 10 -32 36 -45 56 -21 32 -82 96 -179 187 -16 16 -45 36 -63 45 -19 10 -53 32 -77 51 -24 18 -68 41 -97 51 -29 9 -69 28 -89 41 -59 39 -155 54 -364 58 -104 2 -206 1 -225 -1z" />
    </g>
</svg> 